<svg width="317" height="27" viewBox="0 0 317 27" fill="none" xmlns="http://www.w3.org/2000/svg">
<path d="M132.435 23.8786C132.435 25.0622 131.376 26.0216 130.07 26.0216H94.799C93.4932 26.0217 92.4346 25.0622 92.4346 23.8786V3.1645C92.4346 1.98105 93.4932 1.02161 94.799 1.02161H130.07C131.376 1.02161 132.435 1.98105 132.435 3.1645V23.8786Z" fill="#246EA9"/>
<path d="M98.2617 11.0257H99.4569L98.8595 9.64722L98.2617 11.0257Z" fill="white"/>
<path d="M104.618 15.6533V16.2934H106.628V16.9828H104.618V17.7215H106.845L107.877 16.6874L106.899 15.6533H104.618Z" fill="white"/>
<path d="M120.317 9.64722L119.665 11.0257H120.915L120.317 9.64722Z" fill="white"/>
<path d="M110.431 18.1149V15.3087L109.018 16.6873L110.431 18.1149Z" fill="white"/>
<path d="M113.093 16.0966C113.038 15.8012 112.821 15.6533 112.495 15.6533H111.354V16.5395H112.549C112.875 16.5395 113.093 16.3919 113.093 16.0966Z" fill="white"/>
<path d="M116.895 16.4413C117.004 16.3919 117.058 16.2441 117.058 16.0967C117.113 15.8999 117.004 15.8013 116.895 15.752C116.787 15.7028 116.623 15.7028 116.461 15.7028H115.374V16.4906H116.461C116.623 16.4906 116.787 16.4906 116.895 16.4413Z" fill="white"/>
<path d="M124.717 8.36707V8.95784L124.392 8.36707H121.839V8.95784L121.513 8.36707H118.036C117.438 8.36707 116.949 8.46562 116.515 8.66252V8.36707H114.07V8.41634V8.66252C113.799 8.46569 113.473 8.36707 113.038 8.36707H104.292L103.694 9.59789L103.097 8.36707H101.141H100.326V8.95784L100.055 8.36707H100H97.6646L96.5779 10.6809L95.3286 13.1917L95.3057 13.241H95.3286H98.0992H98.1339L98.1536 13.1917L98.4796 12.4533H99.1858L99.5118 13.241H102.662V13.1917V12.6502L102.934 13.2409H104.509L104.781 12.6502V13.1917V13.241H106.03H112.277H112.332V11.9609H112.441C112.549 11.9609 112.549 11.9609 112.549 12.1087V13.1917H116.461V12.8963C116.787 13.0443 117.275 13.1917 117.927 13.1917H119.557L119.883 12.4042H120.643L120.969 13.1917H124.12V12.6995V12.4534L124.609 13.1917H124.717H124.772H127.162V8.36707H124.717H124.717ZM106.302 12.5027H105.759H105.433V12.2075V9.79486L105.378 9.90779V9.90644L104.115 12.5027H104.075H103.784H103.314L102.01 9.79486V12.5027H100.163L99.7832 11.7642H97.9361L97.5557 12.5027H96.6008L98.2079 9.05639H99.5658L101.087 12.3549V9.05639H101.413H102.526L102.552 9.10574H102.554L103.239 10.4576L103.731 11.4705L103.749 11.4195L104.835 9.05647H106.302V12.5027H106.302ZM110.05 9.79486H107.932V10.4348H109.996V11.124H107.932V11.8135H110.05V12.5518H107.008V9.05647H110.05V9.79486ZM113.925 11.0643C113.926 11.0655 113.928 11.0663 113.93 11.0673C113.951 11.087 113.968 11.1068 113.983 11.1257C114.087 11.2493 114.171 11.4331 114.176 11.7028C114.176 11.7074 114.176 11.712 114.176 11.7167C114.176 11.7194 114.177 11.7217 114.177 11.7245C114.177 11.7261 114.177 11.7273 114.177 11.7287C114.178 11.7559 114.179 11.7835 114.179 11.8135V12.5028H113.364V12.1087C113.364 11.9118 113.364 11.6164 113.201 11.4195C113.15 11.373 113.098 11.3423 113.041 11.3205C112.96 11.2727 112.805 11.2719 112.549 11.2719H111.571V12.5028H110.648V9.05647H112.712C113.201 9.05647 113.527 9.05647 113.799 9.20416C114.065 9.34902 114.226 9.58925 114.232 9.96967C114.219 10.4936 113.848 10.7811 113.581 10.878C113.581 10.878 113.763 10.9111 113.925 11.0643ZM115.754 12.5027H114.831V9.05639H115.754V12.5027ZM126.347 12.5027H125.152L123.414 9.89327V12.0595L123.408 12.0544V12.5048H122.49V12.5028H121.567L121.241 11.7643H119.339L119.013 12.5518H117.981C117.547 12.5518 117.003 12.4535 116.678 12.1581C116.352 11.8627 116.189 11.4688 116.189 10.8289C116.189 10.3366 116.297 9.844 116.678 9.45027C116.949 9.15467 117.438 9.05647 118.036 9.05647H118.905V9.79486H118.036C117.71 9.79486 117.547 9.84393 117.329 9.9919C117.167 10.1395 117.058 10.4348 117.058 10.7794C117.058 11.1734 117.112 11.4195 117.329 11.6164C117.493 11.7643 117.71 11.8136 117.981 11.8136H118.362L119.611 9.10588H120.154H120.969L122.49 12.4043V12.2361V11.1242V11.0258V9.10596H123.848L125.423 11.5182V9.10596H126.347V12.5028H126.347V12.5027Z" fill="white"/>
<path d="M113.15 10.4918C113.166 10.4765 113.18 10.459 113.193 10.4391C113.242 10.3685 113.298 10.2413 113.268 10.0678C113.267 10.0519 113.263 10.0371 113.26 10.0229C113.259 10.0189 113.259 10.0155 113.258 10.0115L113.257 10.0116C113.23 9.92725 113.161 9.87542 113.092 9.84399C112.983 9.79492 112.82 9.79492 112.657 9.79492H111.571V10.5827H112.657C112.82 10.5827 112.983 10.5827 113.092 10.5334C113.109 10.5259 113.123 10.5157 113.137 10.5041L113.137 10.5048C113.137 10.5047 113.143 10.4995 113.15 10.4918Z" fill="white"/>
<path d="M129.552 17.426C129.552 17.0814 129.444 16.7367 129.281 16.4906V14.2752H129.278V14.1273C129.278 14.1273 127.001 14.1273 126.662 14.1273C126.324 14.1273 125.912 14.4227 125.912 14.4227V14.1273H123.414C123.033 14.1273 122.545 14.2259 122.327 14.4227V14.1273H117.873V14.2752V14.4226C117.547 14.1766 116.949 14.1273 116.678 14.1273H113.744V14.2752V14.4225C113.472 14.1765 112.82 14.1272 112.494 14.1272H109.235L108.475 14.8657L107.768 14.1272H107.541H107.171H102.879V14.2751V14.664V19.0998H107.66L108.445 18.3878L109.126 19.0998H109.181H111.935H112.06H112.114H112.169V18.6076V17.9676H112.44C112.82 17.9676 113.309 17.9676 113.69 17.8197V19.0503V19.149H116.134V19.0503V17.8689H116.243C116.406 17.8689 116.406 17.8689 116.406 18.0166V19.0503V19.149H123.794C124.283 19.149 124.771 19.0503 125.043 18.8534V19.0503V19.149H127.379C127.868 19.149 128.357 19.0998 128.683 18.9028C129.183 18.6308 129.498 18.1495 129.545 17.5753C129.547 17.5583 129.55 17.5413 129.552 17.5243L129.549 17.5215C129.551 17.4897 129.552 17.4582 129.552 17.426ZM112.44 17.1307H111.354V17.278V17.5736V17.869V18.4106H109.568L108.529 17.3274L108.525 17.331L108.475 17.278L107.279 18.4106H103.803V14.9644H107.334L108.299 15.922L108.501 16.1225L108.529 16.0967L109.67 14.9645H112.549C113.108 14.9645 113.733 15.0895 113.97 15.6047C113.999 15.7067 114.015 15.8201 114.015 15.949C114.015 16.9336 113.255 17.1307 112.44 17.1307ZM117.873 17.0813C117.981 17.2287 118.036 17.4259 118.036 17.7215V18.4105H117.112V17.9676C117.112 17.7703 117.112 17.4259 116.949 17.278C116.841 17.1307 116.623 17.1307 116.297 17.1307H115.32V18.4106H114.396V14.9152H116.46C116.895 14.9152 117.275 14.9152 117.547 15.0627C117.818 15.2105 118.036 15.4567 118.036 15.8506C118.036 16.392 117.655 16.6874 117.384 16.786C117.655 16.8841 117.818 16.9829 117.873 17.0813ZM121.621 15.6533H119.502V16.2934H121.567V16.9828H119.502V17.6721H121.621V18.4105H118.579V14.9151H121.621V15.6533ZM123.903 18.4106H122.164V17.6722H123.903C124.065 17.6722 124.174 17.6722 124.283 17.5736C124.337 17.5243 124.391 17.426 124.391 17.3275C124.391 17.2288 124.337 17.1308 124.283 17.0814C124.228 17.0322 124.12 16.9829 123.957 16.9829C123.088 16.9336 122.055 16.9829 122.055 15.8999C122.055 15.4076 122.381 14.8659 123.359 14.8659H125.152V15.7028H123.468C123.305 15.7028 123.196 15.7028 123.087 15.752C122.979 15.8014 122.979 15.8999 122.979 15.9983C122.979 16.146 123.087 16.1953 123.196 16.2442C123.305 16.2935 123.414 16.2935 123.522 16.2935H124.011C124.5 16.2935 124.826 16.392 125.043 16.589C125.206 16.7367 125.315 16.9829 125.315 17.3275C125.315 18.0657 124.826 18.4106 123.903 18.4106ZM128.574 18.0657C128.357 18.2629 127.977 18.4106 127.433 18.4106H125.695V17.6722H127.433C127.596 17.6722 127.705 17.6722 127.814 17.5736C127.868 17.5243 127.922 17.426 127.922 17.3275C127.922 17.2288 127.868 17.1308 127.814 17.0814C127.759 17.0322 127.651 16.9829 127.488 16.9829C126.619 16.9336 125.587 16.9829 125.587 15.9C125.587 15.4321 125.882 15.0094 126.61 14.8839C126.698 14.873 126.79 14.8659 126.89 14.8659H128.683V15.7028H127.488H127.053H126.999C126.836 15.7028 126.727 15.7028 126.619 15.752C126.564 15.8014 126.51 15.8999 126.51 15.9983C126.51 16.146 126.564 16.1953 126.727 16.2442C126.836 16.2935 126.945 16.2935 127.053 16.2935H127.107H127.542C127.78 16.2935 127.959 16.3201 128.123 16.3724C128.274 16.4218 128.772 16.6237 128.883 17.1508C128.893 17.206 128.9 17.2637 128.9 17.3275C128.9 17.6229 128.792 17.869 128.574 18.0657Z" fill="white"/>
<g clip-path="url(#clip0)">
<path d="M40.4346 3.27161H0.43457V23.2716H40.4346V3.27161Z" fill="#F6F6F6"/>
<path fill-rule="evenodd" clip-rule="evenodd" d="M37.4346 1.02161C35.4346 1.02161 14.2598 1.02161 2.43457 1.02161C1.43457 1.02161 0.43457 2.02161 0.43457 3.02161V6.02161H40.4346C40.4346 6.02161 40.4346 10.6646 40.4346 4.02161C40.4346 2.02161 39.4346 1.02161 37.4346 1.02161Z" fill="#265697"/>
<path fill-rule="evenodd" clip-rule="evenodd" d="M0.43457 21.0216C0.43457 21.0216 0.434571 21.0216 0.43457 23.0216C0.43457 25.0216 1.43457 26.0216 3.43457 26.0216C14.5904 26.0216 35.4346 26.0216 37.4346 26.0216C39.4346 26.0216 40.4346 25.0216 40.4346 23.0216V21.0216H0.43457Z" fill="#D97B16"/>
<path fill-rule="evenodd" clip-rule="evenodd" d="M28.3384 8.46713C27.7778 8.25223 26.8994 8.02161 25.8023 8.02161C23.0064 8.02161 21.0369 9.46038 21.0201 11.5223C21.0043 13.0465 22.4261 13.8968 23.4994 14.4043C24.6009 14.9242 24.9711 15.2558 24.9658 15.7201C24.9589 16.4311 24.0863 16.756 23.273 16.756C22.1404 16.756 21.5387 16.5952 20.6094 16.1992L20.2448 16.0306L19.8477 18.4052C20.5085 18.7013 21.7307 18.9579 22.9997 18.9712C25.9741 18.9712 27.905 17.5489 27.927 15.347C27.9376 14.1403 27.1837 13.222 25.5513 12.4649C24.5622 11.9742 23.9565 11.6467 23.9629 11.1498C23.9629 10.7089 24.4756 10.2374 25.5834 10.2374C26.5087 10.2227 27.1789 10.4289 27.7012 10.6438L27.9548 10.7662L28.3384 8.46713Z" fill="#265697"/>
<path fill-rule="evenodd" clip-rule="evenodd" d="M35.5942 8.21606H33.4077C32.7304 8.21606 32.2235 8.40496 31.9261 9.09574L27.7236 18.8171H30.695C30.695 18.8171 31.1808 17.51 31.2907 17.223C31.6154 17.223 34.5019 17.2276 34.9145 17.2276C34.9992 17.5989 35.2588 18.8171 35.2588 18.8171H37.8845L35.5942 8.21606ZM32.105 15.0533C32.339 14.4421 33.2324 12.088 33.2324 12.088C33.2157 12.1162 33.4646 11.4738 33.6076 11.0755L33.7988 11.9901C33.7988 11.9901 34.3406 14.5222 34.4539 15.0532L32.105 15.0533Z" fill="#265697"/>
<path fill-rule="evenodd" clip-rule="evenodd" d="M15.2471 18.8137L17.0162 8.20593H19.8459L18.0755 18.8137H15.2471Z" fill="#265697"/>
<path fill-rule="evenodd" clip-rule="evenodd" d="M12.874 8.21375L10.1037 15.4475L9.80853 13.9774C9.29281 12.2828 7.686 10.4468 5.88965 9.52762L8.42275 18.8046L11.4166 18.8012L15.8713 8.21375H12.874Z" fill="#265697"/>
<path fill-rule="evenodd" clip-rule="evenodd" d="M7.53346 8.20715H2.97068L2.93457 8.42786C6.48437 9.30591 8.83324 11.4278 9.80825 13.9774L8.81611 9.10271C8.64482 8.431 8.14803 8.23056 7.53346 8.20715Z" fill="#D97B16"/>
</g>
<g clip-path="url(#clip1)">
<path fill-rule="evenodd" clip-rule="evenodd" d="M83.4346 1.02161C81.4346 1.02161 60.2598 1.02161 48.4346 1.02161C47.4346 1.02161 46.4346 2.02161 46.4346 3.02161V23.0216C46.4346 25.0216 47.4346 26.0216 49.4346 26.0216C60.5904 26.0216 81.4346 26.0216 83.4346 26.0216C85.4346 26.0216 86.4346 25.0216 86.4346 23.0216V4.02161C86.4346 2.02161 85.4346 1.02161 83.4346 1.02161Z" fill="#265697"/>
<path fill-rule="evenodd" clip-rule="evenodd" d="M83.821 13.6466C83.8226 19.456 79.1645 24.1664 73.417 24.168C67.6694 24.1694 63.0093 19.4614 63.0078 13.6519V13.6466C63.0063 7.83728 67.6643 3.12667 73.4116 3.12512C79.1593 3.12358 83.8194 7.83182 83.821 13.6413V13.6466C83.821 13.6466 83.821 13.6447 83.821 13.6466Z" fill="#DFAC16"/>
<path fill-rule="evenodd" clip-rule="evenodd" d="M59.3879 3.12786C53.6744 3.16454 49.0483 7.86293 49.0483 13.6466C49.0483 19.4528 53.7105 24.1652 59.455 24.1652C62.151 24.1652 64.6085 23.1267 66.4578 21.4246C66.4577 21.4246 66.4574 21.4243 66.457 21.4241H66.4592C66.8379 21.0753 67.191 20.699 67.5157 20.2977H65.3836C65.0989 19.9501 64.8402 19.5879 64.6077 19.2142H68.2848C68.5085 18.8525 68.7109 18.4769 68.8906 18.0879H64.0006C63.834 17.7267 63.6893 17.3574 63.5657 16.9827H69.326C69.6732 15.9342 69.8616 14.8125 69.8616 13.6465C69.8616 12.8734 69.7787 12.1197 69.6218 11.394H63.2602C63.339 11.0205 63.4385 10.6515 63.5571 10.289H69.3196C69.1907 9.90317 69.0411 9.5272 68.8709 9.16274H64C64.1757 8.78333 64.3748 8.41424 64.5971 8.05786H68.2716C68.027 7.66408 67.7564 7.28787 67.4639 6.93149H65.4152C65.7319 6.55469 66.0807 6.19985 66.4592 5.86899C64.6098 4.16662 62.1516 3.12786 59.455 3.12786C59.4325 3.12786 59.4103 3.12774 59.3879 3.12786C59.3879 3.12786 59.4103 3.12774 59.3879 3.12786Z" fill="#BF3126"/>
<path fill-rule="evenodd" clip-rule="evenodd" d="M63.1969 16.3248L63.3356 15.3728C63.2598 15.3728 63.1484 15.4056 63.0501 15.4056C62.6644 15.4056 62.6218 15.1983 62.6464 15.045L62.958 13.1026H63.5442L63.6857 12.0496H63.133L63.2455 11.3948H62.1375C62.113 11.4195 61.4834 15.0777 61.4834 15.5231C61.4834 16.1826 61.8497 16.4763 62.3663 16.4715C62.7708 16.4681 63.0858 16.3549 63.1969 16.3248C63.1969 16.3248 63.0858 16.3549 63.1969 16.3248Z" fill="white"/>
<path fill-rule="evenodd" clip-rule="evenodd" d="M63.5479 14.5097C63.5479 16.0924 64.5814 16.4685 65.4619 16.4685C66.2747 16.4685 66.6323 16.2849 66.6323 16.2849L66.8275 15.2047C66.8275 15.2047 66.2093 15.48 65.6509 15.48C64.4611 15.48 64.6695 14.5833 64.6695 14.5833H66.9212C66.9212 14.5833 67.0666 13.8576 67.0666 13.5619C67.0666 12.824 66.7033 11.9248 65.4867 11.9248C64.3726 11.925 63.5479 13.1384 63.5479 14.5097C63.5479 14.5097 63.5479 13.1384 63.5479 14.5097ZM65.4909 12.9278C66.1162 12.9278 66.0009 13.6381 66.0009 13.6956H64.7707C64.7707 13.6222 64.887 12.9278 65.4909 12.9278C65.4909 12.9278 64.887 12.9278 65.4909 12.9278Z" fill="white"/>
<path fill-rule="evenodd" clip-rule="evenodd" d="M72.5074 16.3242L72.7057 15.1032C72.7057 15.1032 72.162 15.3788 71.7889 15.3788C71.0029 15.3788 70.6877 14.7722 70.6877 14.1204C70.6877 12.7983 71.3639 12.0709 72.1168 12.0709C72.6814 12.0709 73.1345 12.3913 73.1345 12.3913L73.3154 11.205C73.3154 11.205 72.6434 10.9302 72.0675 10.9302C70.7883 10.9302 69.5439 12.0518 69.5439 14.1583C69.5439 15.5551 70.2159 16.4776 71.5381 16.4776C71.912 16.4777 72.5074 16.3242 72.5074 16.3242Z" fill="white"/>
<path fill-rule="evenodd" clip-rule="evenodd" d="M57.1027 11.9421C56.3429 11.9421 55.7605 12.1889 55.7605 12.1889L55.5997 13.1537C55.5997 13.1537 56.0804 12.9563 56.8071 12.9563C57.2197 12.9563 57.5215 13.0032 57.5215 13.3421C57.5215 13.548 57.4845 13.624 57.4845 13.624C57.4845 13.624 57.1591 13.5964 57.0084 13.5964C56.0501 13.5964 55.0435 14.0098 55.0435 15.2561C55.0435 16.2381 55.7039 16.4634 56.1132 16.4634C56.8949 16.4634 57.2319 15.9507 57.2499 15.9491L57.2133 16.3771H58.189L58.6243 13.2928C58.6243 11.9843 57.495 11.9421 57.1027 11.9421ZM57.3401 14.4534C57.3612 14.6418 57.2232 15.525 56.5561 15.525C56.212 15.525 56.1225 15.2593 56.1225 15.1021C56.1225 14.7956 56.2872 14.4276 57.0992 14.4276C57.288 14.4278 57.3082 14.4482 57.3401 14.4534C57.3401 14.4534 57.3082 14.4482 57.3401 14.4534Z" fill="white"/>
<path fill-rule="evenodd" clip-rule="evenodd" d="M59.6613 16.4409C59.9109 16.4409 61.3377 16.505 61.3377 15.0169C61.3377 13.6257 60.0169 13.9005 60.0169 13.3416C60.0169 13.0634 60.2322 12.9757 60.6257 12.9757C60.7819 12.9757 61.3829 13.026 61.3829 13.026L61.5226 12.0371C61.5226 12.0372 61.1336 11.9491 60.5004 11.9491C59.6807 11.9491 58.8487 12.2798 58.8487 13.4114C58.8487 14.6937 60.236 14.565 60.236 15.1051C60.236 15.4657 59.8484 15.495 59.5497 15.495C59.0328 15.495 58.5674 15.3157 58.5657 15.3243L58.418 16.3032C58.4447 16.3115 58.7318 16.4409 59.6613 16.4409C59.6613 16.4409 58.7318 16.4409 59.6613 16.4409Z" fill="white"/>
<path fill-rule="evenodd" clip-rule="evenodd" d="M81.6856 11.0549L81.4466 12.5539C81.4466 12.5539 81.0295 11.9716 80.3766 11.9716C79.3614 11.9716 78.5151 13.2088 78.5151 14.6305C78.5151 15.5481 78.9665 16.4473 79.8892 16.4473C80.5529 16.4473 80.9209 15.9795 80.9209 15.9795L80.8721 16.379H81.9498L82.7963 11.0531L81.6856 11.0549ZM81.171 13.9776C81.171 14.5692 80.8813 15.3594 80.2805 15.3594C79.8818 15.3594 79.6949 15.021 79.6949 14.49C79.6949 13.6217 80.0807 13.0488 80.5676 13.0488C80.9664 13.0487 81.171 13.3257 81.171 13.9776C81.171 13.9776 81.171 13.3257 81.171 13.9776Z" fill="white"/>
<path fill-rule="evenodd" clip-rule="evenodd" d="M51.1035 16.3836L51.778 12.3627L51.877 16.3836H52.6404L54.0645 12.3627L53.4337 16.3836H54.568L55.4416 11.0505H53.6875L52.5951 14.3227L52.5382 11.0505H50.9213L50.0352 16.3836H51.1035Z" fill="white"/>
<path fill-rule="evenodd" clip-rule="evenodd" d="M68.175 16.391C68.4975 14.5371 68.5573 13.0318 69.3269 13.3074C69.4616 12.5898 69.5916 12.3123 69.7387 12.0086C69.7387 12.0086 69.6697 11.994 69.525 11.994C69.0288 11.994 68.6612 12.6792 68.6612 12.6792L68.76 12.0499H67.7283L67.0371 16.391H68.175Z" fill="white"/>
<path fill-rule="evenodd" clip-rule="evenodd" d="M75.064 11.9421C74.3042 11.9421 73.7218 12.1889 73.7218 12.1889L73.5611 13.1537C73.5611 13.1537 74.0418 12.9563 74.7685 12.9563C75.1811 12.9563 75.4827 13.0032 75.4827 13.3421C75.4827 13.548 75.446 13.624 75.446 13.624C75.446 13.624 75.1205 13.5964 74.9697 13.5964C74.0115 13.5964 73.0049 14.0098 73.0049 15.2561C73.0049 16.2381 73.6652 16.4634 74.0745 16.4634C74.8562 16.4634 75.1932 15.9507 75.2111 15.9491L75.1748 16.3771H76.1504L76.5856 13.2928C76.5857 11.9843 75.4563 11.9421 75.064 11.9421ZM75.3017 14.4534C75.3229 14.6418 75.1847 15.525 74.5174 15.525C74.1733 15.525 74.084 15.2593 74.084 15.1021C74.084 14.7956 74.2488 14.4276 75.0606 14.4276C75.2495 14.4278 75.2695 14.4482 75.3017 14.4534C75.3017 14.4534 75.2695 14.4482 75.3017 14.4534Z" fill="white"/>
<path fill-rule="evenodd" clip-rule="evenodd" d="M77.4776 16.391C77.8002 14.5371 77.86 13.0318 78.6294 13.3074C78.7644 12.5898 78.8945 12.3123 79.0414 12.0086C79.0414 12.0086 78.9725 11.994 78.8278 11.994C78.3316 11.994 77.9639 12.6792 77.9639 12.6792L78.0627 12.0499H77.031L76.3398 16.391H77.4776Z" fill="white"/>
</g>
<path d="M267.794 25.8879H233.075C231.617 25.8879 230.435 24.7476 230.435 23.341V3.43495C230.435 2.02818 231.617 0.887939 233.075 0.887939H267.794C269.252 0.887939 270.435 2.02818 270.435 3.43495V23.3409C270.435 24.7476 269.252 25.8879 267.794 25.8879Z" fill="#F9F9F9"/>
<path d="M267.794 25.8879H233.075C231.617 25.8879 230.435 24.7476 230.435 23.341V3.43495C230.435 2.02818 231.617 0.887939 233.075 0.887939H267.794C269.252 0.887939 270.435 2.02818 270.435 3.43495V23.3409C270.435 24.7476 269.252 25.8879 267.794 25.8879Z" stroke="#303030" stroke-width="0.8" stroke-miterlimit="10" stroke-linecap="round" stroke-linejoin="round"/>
<path d="M240.456 9.83357C240.456 9.9034 240.456 9.95932 240.456 10.0155C240.456 11.3919 240.46 12.7686 240.453 14.1452C240.451 14.6794 240.275 15.1523 239.84 15.5084C239.47 15.8106 239.029 15.9337 238.555 15.9489C237.486 15.9836 236.482 15.7172 235.51 15.3127C235.407 15.2697 235.307 15.2169 235.202 15.1807C235.109 15.1487 235.089 15.0937 235.089 15.0044C235.091 12.0124 235.088 9.02055 235.092 6.02847C235.094 4.2318 236.315 2.76134 238.131 2.3767C238.427 2.31414 238.738 2.29283 239.042 2.29233C240.816 2.28932 242.589 2.29872 244.363 2.30199C244.468 2.30224 244.537 2.30324 244.537 2.44278C244.533 8.58303 244.536 14.7233 244.529 20.8636C244.528 21.9105 244.098 22.7941 243.308 23.5064C242.576 24.1661 241.696 24.4872 240.697 24.4907C238.887 24.4972 237.077 24.4947 235.267 24.496C235.214 24.496 235.161 24.496 235.099 24.496C235.099 21.8989 235.099 19.3129 235.099 16.7121C235.327 16.7593 235.552 16.8085 235.779 16.8519C236.525 16.9945 237.277 17.1048 238.038 17.1282C238.689 17.148 239.343 17.1573 239.993 17.1255C240.801 17.086 241.59 16.9372 242.316 16.5681C243.245 16.096 243.745 15.3482 243.763 14.3397C243.79 12.8768 243.78 11.4134 243.786 9.95017C243.786 9.87307 243.778 9.81979 243.671 9.82004C242.627 9.82418 241.582 9.8238 240.538 9.82519C240.516 9.82517 240.494 9.82943 240.456 9.83357Z" fill="#0152CC"/>
<path d="M245.717 15.9743C245.837 16.0586 245.942 16.1382 246.053 16.2094C246.717 16.6349 247.458 16.8612 248.234 16.9977C249.299 17.1848 250.374 17.1957 251.449 17.1222C252.341 17.0614 253.22 16.9082 254.099 16.7034C254.099 16.1876 254.099 15.6728 254.099 15.1453C254.065 15.1566 254.032 15.1638 254.002 15.1777C253.277 15.5213 252.521 15.7765 251.72 15.8878C250.933 15.9969 250.15 16.0176 249.395 15.7225C248.523 15.3816 248.048 14.7427 247.919 13.8551C247.852 13.3989 247.87 12.9447 248.013 12.5023C248.311 11.5838 248.997 11.0908 249.943 10.9045C250.836 10.7286 251.719 10.8347 252.58 11.0804C253.05 11.2148 253.501 11.4161 253.96 11.5881C254.005 11.6047 254.047 11.6261 254.1 11.6496C254.104 11.6088 254.109 11.5836 254.109 11.5586C254.109 11.1026 254.108 10.6465 254.11 10.1906C254.11 10.1158 254.095 10.0778 254.007 10.0578C252.676 9.75736 251.33 9.58661 249.96 9.62572C248.968 9.65406 247.987 9.76012 247.047 10.0936C246.571 10.2624 246.13 10.4917 245.721 10.8145C245.716 10.7672 245.709 10.736 245.709 10.7049C245.709 9.13729 245.703 7.56979 245.711 6.00229C245.72 4.22041 246.944 2.75572 248.746 2.37333C249.033 2.31216 249.334 2.28858 249.629 2.2872C251.425 2.2793 253.222 2.28394 255.018 2.2793C255.152 2.27881 255.179 2.31968 255.179 2.44103C255.176 8.52447 255.177 14.608 255.176 20.6916C255.176 21.7698 254.804 22.7061 253.995 23.4608C253.36 24.0524 252.598 24.3942 251.715 24.4741C251.541 24.4899 251.365 24.4957 251.19 24.4957C249.421 24.4973 247.652 24.4967 245.883 24.4967C245.83 24.4967 245.777 24.4967 245.717 24.4967C245.717 21.6536 245.717 18.824 245.717 15.9743Z" fill="#D22F2F"/>
<path d="M256.336 9.82535C256.334 9.76881 256.33 9.7223 256.33 9.6759C256.329 8.4602 256.327 7.24435 256.33 6.02852C256.335 4.23524 257.556 2.76301 259.369 2.37838C259.665 2.31569 259.975 2.29262 260.279 2.292C262.053 2.28773 263.826 2.29563 265.6 2.29952C265.774 2.30014 265.775 2.30052 265.775 2.47491C265.775 8.55811 265.767 14.6414 265.78 20.7246C265.784 22.4394 264.651 23.8199 263.181 24.2962C262.79 24.4225 262.388 24.4906 261.977 24.4915C260.145 24.4946 258.313 24.4931 256.481 24.4932C256.437 24.4932 256.393 24.4932 256.337 24.4932C256.334 24.4349 256.33 24.3887 256.33 24.3422C256.329 21.9323 256.331 19.5224 256.327 17.1126C256.327 16.9862 256.363 16.9529 256.493 16.9535C258.37 16.9596 260.247 16.9603 262.124 16.9633C262.604 16.964 263.076 16.9233 263.522 16.7375C264.073 16.5087 264.486 16.1506 264.662 15.5811C264.875 14.8948 264.621 14.2003 264.01 13.7789C263.605 13.4989 263.145 13.367 262.655 13.3166C262.625 13.3136 262.595 13.3097 262.561 13.2857C262.682 13.2561 262.805 13.2321 262.924 13.196C263.542 13.0079 264.022 12.6622 264.206 12.0398C264.454 11.1993 264.087 10.3688 263.074 10.0109C262.659 9.86433 262.227 9.82471 261.788 9.82484C260.028 9.82534 258.268 9.82522 256.508 9.82534C256.455 9.82535 256.402 9.82535 256.336 9.82535Z" fill="#25BA2F"/>
<path d="M258.219 15.7746C258.219 15.1339 258.219 14.501 258.219 13.8601C258.258 13.8563 258.292 13.8502 258.326 13.8501C259.029 13.8496 259.731 13.8471 260.433 13.8507C260.915 13.8529 261.298 14.1251 261.418 14.5381C261.602 15.1745 261.166 15.7651 260.469 15.7836C259.736 15.8032 259.002 15.788 258.269 15.7877C258.256 15.7876 258.243 15.7811 258.219 15.7746Z" fill="#25BA2F"/>
<path d="M258.219 12.7147C258.219 12.1251 258.219 11.5496 258.219 10.965C258.257 10.9601 258.291 10.952 258.325 10.952C258.973 10.9516 259.62 10.9475 260.268 10.9544C260.713 10.9593 261.043 11.1988 261.158 11.5782C261.331 12.1517 260.935 12.7042 260.318 12.7195C259.648 12.7362 258.978 12.7255 258.308 12.7262C258.282 12.7262 258.256 12.7196 258.219 12.7147Z" fill="#25BA2F"/>
<path d="M175.803 25.8879H141.066C139.613 25.8879 138.435 24.7577 138.435 23.3636V3.54581C138.435 2.1517 139.613 1.02148 141.066 1.02148H175.803C177.257 1.02148 178.435 2.1517 178.435 3.54581V23.3636C178.435 24.7577 177.257 25.8879 175.803 25.8879Z" fill="#F9F9F9"/>
<path d="M178.137 15.2584V15.2588L178.127 15.2645V15.2641L178.081 15.2929C177.989 15.3506 177.9 15.4061 177.813 15.4603L177.806 15.4648C177.718 15.5196 177.632 15.5731 177.546 15.6256C176.153 16.4728 174.71 17.2334 173.239 17.9471C169.836 19.599 166.313 20.9752 162.702 22.1507C159.931 23.0533 157.123 23.833 154.275 24.4769C152.808 24.8086 151.329 25.0969 149.853 25.3935C149.639 25.4366 149.424 25.4737 149.209 25.5121L149.189 25.5186L146.871 26.0216H175.815C177.262 26.0216 178.435 24.8963 178.435 23.5082V15.0732L178.137 15.2584Z" fill="#FF6F00"/>
<path d="M175.803 25.8879H141.066C139.613 25.8879 138.435 24.7577 138.435 23.3636V3.54581C138.435 2.1517 139.613 1.02148 141.066 1.02148H175.803C177.257 1.02148 178.435 2.1517 178.435 3.54581V23.3636C178.435 24.7577 177.257 25.8879 175.803 25.8879Z" stroke="#303030" stroke-width="0.8" stroke-miterlimit="10" stroke-linecap="round" stroke-linejoin="round"/>
<path d="M142.103 15.4549C142.103 13.7611 142.103 12.0859 142.103 10.4055C142.123 10.4007 142.142 10.3922 142.16 10.3923C142.744 10.3964 143.329 10.3739 143.91 10.412C144.841 10.4731 145.621 10.8362 146.095 11.6401C147.027 13.2234 146.01 15.2028 144.166 15.4124C143.702 15.465 143.23 15.4445 142.761 15.4542C142.546 15.4586 142.33 15.4549 142.103 15.4549ZM143.138 14.5872C143.333 14.5872 143.516 14.5966 143.699 14.5853C144.105 14.5602 144.488 14.4676 144.804 14.1987C145.529 13.5812 145.57 12.4087 144.892 11.7382C144.403 11.2541 143.779 11.2438 143.138 11.2581C143.138 12.3706 143.138 13.4728 143.138 14.5872Z" fill="#303030"/>
<path d="M171.301 10.4018C171.32 10.3972 171.332 10.3922 171.343 10.3923C171.927 10.3963 172.51 10.391 173.093 10.4101C173.297 10.4168 173.506 10.464 173.702 10.5254C174.366 10.734 174.735 11.2819 174.691 11.953C174.666 12.3359 174.565 12.6846 174.265 12.9592C174.08 13.1283 173.858 13.2297 173.616 13.2966C173.581 13.3062 173.545 13.315 173.495 13.3283C174.045 14.0348 174.59 14.7339 175.152 15.4548C174.9 15.4548 174.678 15.4548 174.455 15.4548C174.3 15.4548 174.145 15.4498 173.991 15.4567C173.906 15.4604 173.859 15.4296 173.814 15.364C173.384 14.7452 172.951 14.1291 172.521 13.5109C172.477 13.4479 172.436 13.3941 172.331 13.4343C172.331 14.0976 172.331 14.7683 172.331 15.4467C171.98 15.4467 171.644 15.4467 171.301 15.4467C171.301 13.7649 171.301 12.0873 171.301 10.4018ZM172.332 12.7232C172.655 12.7235 172.974 12.7431 173.266 12.588C173.535 12.445 173.63 12.2103 173.627 11.9284C173.623 11.6567 173.516 11.4398 173.256 11.3127C172.964 11.1695 172.65 11.189 172.332 11.1997C172.332 11.7102 172.332 12.2098 172.332 12.7232Z" fill="#303030"/>
<path d="M167.708 10.3972C168.677 10.3972 169.638 10.3972 170.608 10.3972C170.608 10.682 170.608 10.9613 170.608 11.251C169.989 11.251 169.37 11.251 168.742 11.251C168.742 11.6263 168.742 11.9913 168.742 12.37C169.339 12.37 169.932 12.37 170.535 12.37C170.535 12.6622 170.535 12.9409 170.535 13.2313C169.936 13.2313 169.343 13.2313 168.741 13.2313C168.741 13.6873 168.741 14.1316 168.741 14.5905C169.364 14.5905 169.986 14.5905 170.612 14.5905C170.612 14.8816 170.612 15.1582 170.612 15.4449C169.644 15.4449 168.68 15.4449 167.708 15.4449C167.708 13.7662 167.708 12.0891 167.708 10.3972Z" fill="#303030"/>
<path d="M151.791 10.8781C151.609 11.1058 151.434 11.3251 151.254 11.5499C151.057 11.3482 150.849 11.1858 150.566 11.1513C150.283 11.1168 150.018 11.1611 149.808 11.3631C149.581 11.5809 149.607 11.906 149.879 12.0675C150.061 12.1756 150.267 12.2468 150.462 12.3345C150.76 12.4691 151.068 12.5863 151.354 12.7421C151.767 12.9674 151.953 13.3317 151.972 13.7838C151.997 14.3821 151.808 14.8883 151.291 15.25C150.901 15.5229 150.452 15.5992 149.979 15.5726C149.258 15.5321 148.729 15.1886 148.346 14.6382C148.558 14.4204 148.766 14.2075 148.966 14.0029C149.095 14.1457 149.197 14.2897 149.33 14.3998C149.626 14.6456 149.979 14.7259 150.359 14.6352C150.746 14.5433 150.978 14.1833 150.896 13.8305C150.854 13.6469 150.743 13.507 150.572 13.4249C150.38 13.3324 150.176 13.2603 149.978 13.1797C149.764 13.093 149.545 13.0164 149.337 12.9175C148.673 12.6007 148.469 12.0476 148.659 11.358C148.817 10.7812 149.366 10.3775 150.045 10.3199C150.685 10.2652 151.254 10.442 151.749 10.8352C151.761 10.8448 151.771 10.8576 151.791 10.8781Z" fill="#303030"/>
<path d="M162.179 10.3916C162.539 10.3916 162.889 10.3887 163.239 10.3962C163.272 10.3968 163.316 10.4562 163.333 10.4967C163.697 11.3682 164.057 12.2412 164.418 13.1136C164.507 13.3279 164.597 13.5419 164.695 13.7766C164.719 13.7233 164.738 13.6871 164.754 13.65C165.195 12.5973 165.637 11.545 166.076 10.4917C166.105 10.421 166.138 10.3875 166.224 10.389C166.555 10.3944 166.885 10.3912 167.235 10.3912C167.215 10.4415 167.201 10.4802 167.184 10.5179C166.458 12.1726 165.73 13.8269 165.007 15.4826C164.972 15.5614 164.93 15.5884 164.845 15.5836C164.727 15.5769 164.608 15.588 164.49 15.5788C164.448 15.5755 164.388 15.5432 164.374 15.5096C163.642 13.8231 162.914 12.1348 162.187 10.4466C162.182 10.4366 162.183 10.4241 162.179 10.3916Z" fill="#303030"/>
<path d="M156.371 11.7362C156.206 11.6172 156.064 11.4973 155.905 11.4045C155.292 11.0465 154.505 11.1301 153.952 11.6023C153.127 12.3073 153.165 13.683 154.028 14.3203C154.674 14.7981 155.576 14.7737 156.193 14.2613C156.245 14.2183 156.296 14.1748 156.372 14.112C156.372 14.1876 156.372 14.2399 156.372 14.2924C156.371 14.59 156.37 14.8875 156.373 15.1852C156.374 15.2485 156.353 15.2818 156.292 15.31C155.032 15.8865 153.489 15.4934 152.739 14.3819C151.705 12.8477 152.523 10.7505 154.509 10.3392C155.123 10.2125 155.718 10.2756 156.283 10.5513C156.319 10.5694 156.367 10.6125 156.368 10.6446C156.373 11.0039 156.371 11.3635 156.371 11.7362Z" fill="#303030"/>
<path d="M162.355 12.9272C162.38 14.3756 161.138 15.5582 159.563 15.5559C157.978 15.5537 156.76 14.4211 156.769 12.8966C156.778 11.4569 158.011 10.3221 159.564 10.3129C161.146 10.3038 162.38 11.4964 162.355 12.9272Z" fill="#FF6F00"/>
<path d="M147.938 15.4487C147.596 15.4487 147.263 15.4487 146.922 15.4487C146.922 13.765 146.922 12.0879 146.922 10.401C147.26 10.401 147.595 10.401 147.938 10.401C147.938 12.0813 147.938 13.7586 147.938 15.4487Z" fill="#303030"/>
<path fill-rule="evenodd" clip-rule="evenodd" d="M221.435 0.88794C219.435 0.88794 198.26 0.887939 186.435 0.88794C185.435 0.88794 184.435 1.88794 184.435 2.88794C184.435 8.90015 184.435 20.8879 184.435 22.8879C184.435 24.8879 185.435 25.8879 187.435 25.8879C198.59 25.8879 219.435 25.8879 221.435 25.8879C223.435 25.8879 224.435 24.8879 224.435 22.8879C224.435 20.8879 224.435 10.5309 224.435 3.88794C224.435 1.88794 223.435 0.88794 221.435 0.88794Z" fill="#F4F4F4"/>
<path fill-rule="evenodd" clip-rule="evenodd" d="M205.636 16.4084C208.668 16.4229 211.435 13.9329 211.435 10.9037C211.435 7.59109 208.668 5.30139 205.636 5.30249H203.027C199.96 5.30139 197.435 7.59178 197.435 10.9037C197.435 13.9335 199.96 16.4229 203.027 16.4084H205.636Z" fill="#4186CD"/>
<path fill-rule="evenodd" clip-rule="evenodd" d="M202.99 5.74683C200.167 5.74771 197.88 8.03408 197.879 10.8559C197.88 13.6773 200.167 15.9634 202.99 15.9643C205.813 15.9634 208.101 13.6773 208.101 10.8559C208.101 8.03408 205.813 5.74771 202.99 5.74683ZM199.879 10.7448C199.881 9.37646 200.71 8.20959 201.879 7.74589V13.7431C200.71 13.2797 199.881 12.1134 199.879 10.7448ZM204.101 13.7431V7.74589C205.269 8.20835 206.099 9.37559 206.101 10.7443C206.099 12.1134 205.269 13.2798 204.101 13.7431Z" fill="white"/>
<path fill-rule="evenodd" clip-rule="evenodd" d="M193.241 18.2508C193.241 17.7928 193 17.823 192.768 17.818V17.6857C192.969 17.6955 193.174 17.6955 193.375 17.6955C193.591 17.6955 193.885 17.6857 194.266 17.6857C195.598 17.6857 196.324 18.5662 196.324 19.4678C196.324 19.972 196.025 21.2396 194.204 21.2396C193.941 21.2396 193.699 21.2296 193.458 21.2296C193.226 21.2296 193 21.2346 192.768 21.2396V21.1074C193.077 21.0767 193.226 21.0665 193.241 20.7202V18.2508H193.241ZM193.657 20.5957C193.657 20.9734 193.939 21.0174 194.189 21.0174C195.294 21.0174 195.657 20.2178 195.657 19.4869C195.657 18.5699 195.043 17.9078 194.056 17.9078C193.846 17.9078 193.75 17.9222 193.657 17.9274L193.657 20.5957Z" fill="#211E1F"/>
<path fill-rule="evenodd" clip-rule="evenodd" d="M196.324 21.1132H196.422C196.567 21.1132 196.671 21.1132 196.671 20.9524V19.6357C196.671 19.4221 196.594 19.3924 196.401 19.2958V19.2179C196.645 19.1493 196.937 19.0576 196.957 19.0429C196.994 19.0235 197.025 19.0184 197.051 19.0184C197.076 19.0184 197.087 19.0477 197.087 19.0868V20.9524C197.087 21.1132 197.201 21.1132 197.347 21.1132H197.435V21.2396C197.258 21.2396 197.076 21.2299 196.89 21.2299C196.703 21.2299 196.516 21.2346 196.324 21.2396V21.1132H196.324ZM196.768 18.1299C196.65 18.1299 196.546 18.0213 196.546 17.9035C196.546 17.7901 196.655 17.6857 196.768 17.6857C196.886 17.6857 196.99 17.7812 196.99 17.9035C196.99 18.0259 196.89 18.1299 196.768 18.1299Z" fill="#211E1F"/>
<path fill-rule="evenodd" clip-rule="evenodd" d="M197.978 19.6646C197.978 19.4849 197.924 19.4365 197.696 19.3441V19.2519C197.905 19.1839 198.105 19.1206 198.338 19.0183C198.353 19.0183 198.367 19.0282 198.367 19.0669V19.383C198.645 19.1839 198.884 19.0183 199.21 19.0183C199.624 19.0183 199.77 19.3197 199.77 19.6987V20.9524C199.77 21.1132 199.877 21.1132 200.014 21.1132H200.101V21.2395C199.93 21.2395 199.76 21.2298 199.585 21.2298C199.41 21.2298 199.234 21.2346 199.059 21.2395V21.1132H199.147C199.283 21.1132 199.38 21.1132 199.38 20.9524V19.6941C199.38 19.4167 199.21 19.2808 198.933 19.2808C198.777 19.2808 198.529 19.4072 198.367 19.5142V20.9523C198.367 21.1132 198.475 21.1132 198.611 21.1132H198.699V21.2395C198.529 21.2395 198.358 21.2298 198.183 21.2298C198.007 21.2298 197.832 21.2345 197.657 21.2395V21.1132H197.745C197.881 21.1132 197.978 21.1132 197.978 20.9523V19.6646H197.978Z" fill="#211E1F"/>
<path fill-rule="evenodd" clip-rule="evenodd" d="M200.527 19.9554C200.516 20.0021 200.516 20.0796 200.527 20.2558C200.559 20.7473 200.884 21.1509 201.309 21.1509C201.602 21.1509 201.831 20.9957 202.027 20.8043L202.102 20.877C201.857 21.1925 201.554 21.4616 201.118 21.4616C200.272 21.4616 200.102 20.6643 200.102 20.3333C200.102 19.3186 200.804 19.0183 201.176 19.0183C201.607 19.0183 202.07 19.2821 202.075 19.8309C202.075 19.8623 202.075 19.893 202.07 19.9244L202.022 19.9554H200.527ZM201.504 19.6847C201.641 19.6847 201.657 19.6352 201.657 19.5898C201.657 19.3961 201.487 19.2404 201.178 19.2404C200.843 19.2404 200.612 19.411 200.546 19.6847H201.504Z" fill="#211E1F"/>
<path fill-rule="evenodd" clip-rule="evenodd" d="M202.102 21.1132H202.225C202.352 21.1132 202.443 21.1132 202.443 20.9524V19.587C202.443 19.4365 202.275 19.4072 202.206 19.3683V19.2957C202.539 19.1448 202.722 19.0183 202.763 19.0183C202.79 19.0183 202.804 19.033 202.804 19.0817V19.519H202.814C202.927 19.3296 203.119 19.0183 203.397 19.0183C203.511 19.0183 203.657 19.1008 203.657 19.2759C203.657 19.4072 203.571 19.5241 203.443 19.5241C203.301 19.5241 203.301 19.4072 203.142 19.4072C203.064 19.4072 202.809 19.519 202.809 19.8107V20.9524C202.809 21.1132 202.9 21.1132 203.028 21.1132H203.283V21.2395C203.032 21.2345 202.841 21.2298 202.644 21.2298C202.458 21.2298 202.266 21.2345 202.102 21.2395V21.1132H202.102Z" fill="#211E1F"/>
<path fill-rule="evenodd" clip-rule="evenodd" d="M203.971 20.6643C204.037 21.006 204.241 21.296 204.614 21.296C204.914 21.296 205.026 21.1097 205.026 20.9285C205.026 20.3177 203.915 20.5143 203.915 19.6811C203.915 19.3911 204.144 19.0183 204.705 19.0183C204.868 19.0183 205.087 19.0652 205.286 19.1689L205.322 19.6963H205.205C205.154 19.3706 204.976 19.1841 204.649 19.1841C204.445 19.1841 204.251 19.3033 204.251 19.5257C204.251 20.1318 205.434 19.9449 205.434 20.7575C205.434 21.099 205.164 21.4616 204.557 21.4616C204.353 21.4616 204.113 21.3892 203.935 21.2859L203.879 20.6905L203.971 20.6643Z" fill="#211E1F"/>
<path fill-rule="evenodd" clip-rule="evenodd" d="M209.874 18.7025H209.75C209.656 18.096 209.243 17.852 208.687 17.852C208.115 17.852 207.284 18.2511 207.284 19.4957C207.284 20.544 208.001 21.2957 208.766 21.2957C209.258 21.2957 209.666 20.9432 209.765 20.3985L209.879 20.4294L209.765 21.1866C209.556 21.3218 208.995 21.4617 208.666 21.4617C207.503 21.4617 206.768 20.6785 206.768 19.5116C206.768 18.4483 207.678 17.6857 208.652 17.6857C209.054 17.6857 209.442 17.8211 209.825 17.9612L209.874 18.7025Z" fill="#211E1F"/>
<path fill-rule="evenodd" clip-rule="evenodd" d="M210.102 21.1111H210.2C210.346 21.1111 210.45 21.1111 210.45 20.9475V18.1953C210.45 17.8739 210.372 17.864 210.174 17.8097V17.7307C210.382 17.6666 210.6 17.5774 210.709 17.518C210.766 17.4885 210.808 17.4635 210.823 17.4635C210.855 17.4635 210.865 17.4934 210.865 17.533V20.9475C210.865 21.1111 210.979 21.1111 211.125 21.1111H211.213V21.2395C211.037 21.2395 210.855 21.2296 210.668 21.2296C210.481 21.2296 210.294 21.2345 210.102 21.2395V21.1111H210.102Z" fill="#211E1F"/>
<path fill-rule="evenodd" clip-rule="evenodd" d="M213.322 20.899C213.322 20.9868 213.376 20.9916 213.46 20.9916C213.519 20.9916 213.593 20.9868 213.657 20.9868V21.0891C213.445 21.1084 213.041 21.2105 212.947 21.2395L212.922 21.2248V20.8315C212.627 21.0695 212.4 21.2395 212.05 21.2395C211.783 21.2395 211.508 21.0695 211.508 20.6615V19.4168C211.508 19.2905 211.488 19.1689 211.212 19.1447V19.0523C211.39 19.0475 211.784 19.0183 211.848 19.0183C211.903 19.0183 211.903 19.0523 211.903 19.1592V20.4128C211.903 20.559 211.903 20.9769 212.331 20.9769C212.499 20.9769 212.72 20.8505 212.927 20.6809V19.3728C212.927 19.276 212.691 19.2226 212.514 19.1738V19.0863C212.957 19.057 213.233 19.0183 213.282 19.0183C213.322 19.0183 213.322 19.0522 213.322 19.106V20.899H213.322Z" fill="#211E1F"/>
<path fill-rule="evenodd" clip-rule="evenodd" d="M214.352 19.4088C214.56 19.2343 214.842 19.0392 215.13 19.0392C215.736 19.0392 216.101 19.558 216.101 20.117C216.101 20.7892 215.6 21.4616 214.853 21.4616C214.466 21.4616 214.263 21.3383 214.127 21.2821L213.97 21.3999L213.861 21.3437C213.907 21.0409 213.934 20.7431 213.934 20.4303V18.2234C213.934 17.8897 213.855 17.8794 213.657 17.823V17.741C213.866 17.6744 214.085 17.5818 214.195 17.52C214.252 17.4894 214.294 17.4635 214.31 17.4635C214.341 17.4635 214.352 17.4945 214.352 17.5357V19.4087H214.352V19.4088ZM214.323 20.719C214.323 20.9129 214.511 21.2395 214.862 21.2395C215.422 21.2395 215.657 20.7038 215.657 20.2498C215.657 19.6992 215.228 19.2404 214.82 19.2404C214.626 19.2404 214.464 19.363 214.323 19.4805V20.719H214.323Z" fill="#211E1F"/>
<path fill-rule="evenodd" clip-rule="evenodd" d="M313.435 1.02148C311.435 1.02148 290.26 1.02148 278.435 1.02148C277.435 1.02148 276.435 2.02148 276.435 3.02148C276.435 9.03369 276.435 21.0215 276.435 23.0215C276.435 25.0215 277.435 26.0215 279.435 26.0215C290.59 26.0215 311.435 26.0215 313.435 26.0215C315.435 26.0215 316.435 25.0215 316.435 23.0215C316.435 21.0215 316.435 10.6645 316.435 4.02148C316.435 2.02148 315.435 1.02148 313.435 1.02148Z" fill="black"/>
<path d="M296.434 21.8509C298.534 19.8369 299.859 16.9126 299.859 13.6646C299.859 10.4159 298.534 7.49319 296.434 5.45683C294.599 3.68139 292.155 2.59814 289.464 2.59814C283.717 2.59814 279.048 7.55793 279.048 13.6642C279.048 19.772 283.717 24.7092 289.464 24.7092C292.155 24.7096 294.599 23.6273 296.434 21.8509Z" fill="#EE0005"/>
<path d="M296.434 21.8509C298.534 19.8368 299.859 16.9125 299.859 13.6646C299.859 10.4158 298.534 7.49314 296.434 5.45679V21.8509Z" fill="#EE0005"/>
<path d="M303.426 2.59863C300.735 2.59863 298.289 3.68187 296.434 5.45732C296.068 5.82519 295.722 6.21524 295.395 6.6276H297.494C297.78 6.9946 298.045 7.40696 298.289 7.79626H294.599C294.376 8.18632 294.172 8.57681 293.988 8.96578H298.88C299.044 9.35508 299.206 9.74633 299.328 10.1356H293.562C293.439 10.5254 293.337 10.9162 293.255 11.3266H299.634C299.777 12.0631 299.859 12.8647 299.859 13.6651C299.859 14.8779 299.675 16.0696 299.328 17.1739H293.562C293.683 17.5632 293.826 17.9537 293.988 18.3434H298.88C298.697 18.7335 298.513 19.1446 298.289 19.5129H294.599C294.845 19.9245 295.11 20.3142 295.395 20.6824H297.494C297.168 21.0941 296.821 21.4841 296.434 21.852C298.289 23.6283 300.735 24.7107 303.426 24.7107C309.174 24.7107 313.821 19.7735 313.821 13.6656C313.821 7.55852 309.174 2.59863 303.426 2.59863Z" fill="#44A2DF"/>
<path d="M310.233 16.0471C310.233 15.8518 310.397 15.7008 310.58 15.7008C310.764 15.7008 310.906 15.8519 310.906 16.0471C310.906 16.2428 310.764 16.4158 310.58 16.4158C310.397 16.4158 310.233 16.2428 310.233 16.0471ZM310.58 16.329C310.722 16.329 310.824 16.199 310.824 16.0471C310.824 15.8957 310.722 15.7871 310.58 15.7871C310.437 15.7871 310.316 15.8957 310.316 16.0471C310.316 16.199 310.437 16.329 310.58 16.329ZM310.539 16.199H310.458V15.8956H310.58C310.62 15.8956 310.641 15.8956 310.662 15.9174C310.682 15.9389 310.702 15.96 310.702 15.9823C310.702 16.026 310.682 16.0693 310.641 16.0693L310.702 16.1989H310.62L310.58 16.0903H310.539V16.199ZM310.539 16.026H310.58C310.58 16.026 310.6 16.026 310.62 16.026C310.62 16.026 310.62 16.0037 310.62 15.9823V15.96C310.6 15.96 310.58 15.96 310.56 15.96H310.539V16.026H310.539V16.026Z" fill="white"/>
<path d="M288.159 16.4158H286.855L287.629 12.1061L285.857 16.4158H284.673L284.47 12.1276L283.696 16.4158H282.513L283.512 10.807H285.55L285.652 14.2713L287.08 10.807H289.177L288.159 16.4158Z" fill="white"/>
<path d="M302.63 16.3512C302.263 16.4586 301.998 16.5019 301.692 16.5019C301.04 16.5019 300.672 16.1556 300.672 15.5066C300.672 15.3761 300.693 15.2457 300.713 15.0942L300.794 14.6393L300.857 14.2934L301.447 10.8073H302.731L302.549 11.8459H303.22L303.037 12.9513H302.365L302.039 14.8565C302.018 14.9432 301.998 15.0084 301.998 15.0513C301.998 15.2899 302.141 15.3972 302.447 15.3972C302.589 15.3972 302.711 15.3758 302.793 15.3542L302.63 16.3512Z" fill="white"/>
<path d="M306.401 11.8901C306.299 11.846 306.279 11.846 306.259 11.846C306.197 11.8237 306.157 11.8237 306.157 11.803C306.115 11.803 306.075 11.803 306.015 11.803C305.586 11.803 305.28 11.9978 304.893 12.5386L305.015 11.846H303.832L303.038 16.4157H304.342C304.811 13.621 304.994 13.1235 305.626 13.1235C305.667 13.1235 305.729 13.1454 305.789 13.1454L305.932 13.1884L306.401 11.8901Z" fill="white"/>
<path d="M297.493 13.2965C297.493 13.86 297.8 14.2711 298.493 14.5535C299.023 14.7909 299.105 14.8565 299.105 15.0732C299.105 15.3544 298.859 15.4848 298.35 15.4848C297.963 15.4848 297.595 15.4196 297.168 15.2904L297.004 16.3516H297.066L297.29 16.4161C297.371 16.4161 297.493 16.4379 297.636 16.4379C297.942 16.4805 298.187 16.4805 298.37 16.4805C299.736 16.4805 300.388 16.0041 300.388 14.9651C300.388 14.3367 300.123 13.969 299.451 13.6874C298.9 13.4707 298.839 13.4058 298.839 13.1892C298.839 12.9518 299.063 12.8213 299.491 12.8213C299.736 12.8213 300.102 12.8436 300.428 12.8857L300.612 11.8467C300.266 11.7827 299.756 11.7604 299.47 11.7604C298.004 11.7596 297.493 12.4523 297.493 13.2965Z" fill="white"/>
<path d="M292.357 16.4157H291.297L291.318 15.9384C290.992 16.3071 290.544 16.4801 289.952 16.4801C289.26 16.4801 288.771 15.9822 288.771 15.2458C288.771 14.1407 289.605 13.4914 291.053 13.4914C291.195 13.4914 291.379 13.4914 291.583 13.5137C291.624 13.3622 291.624 13.2965 291.624 13.2321C291.624 12.9291 291.399 12.8205 290.788 12.8205C290.42 12.8205 290.014 12.8638 289.728 12.9291L289.545 12.9942L289.422 13.0153L289.605 11.9978C290.258 11.8236 290.666 11.7596 291.155 11.7596C292.276 11.7596 292.847 12.2138 292.847 13.0798C292.847 13.3184 292.827 13.4917 292.745 13.99L292.48 15.6144L292.44 15.8956L292.398 16.1346L292.378 16.2853L292.357 16.4157ZM291.42 14.3793C291.276 14.3579 291.216 14.3579 291.135 14.3579C290.4 14.3579 290.034 14.596 290.034 15.0514C290.034 15.3325 290.196 15.5277 290.482 15.5277C291.013 15.5277 291.399 15.0514 291.42 14.3793Z" fill="white"/>
<path d="M296.618 16.3069C296.17 16.4369 295.742 16.5013 295.293 16.5013C293.847 16.5013 293.092 15.7863 293.092 14.4438C293.092 12.8842 294.05 11.7367 295.355 11.7367C296.414 11.7367 297.088 12.3865 297.088 13.3826C297.088 13.7284 297.047 14.055 296.945 14.5091H294.356C294.356 14.5954 294.356 14.6168 294.356 14.661C294.356 15.1807 294.723 15.4619 295.477 15.4619C295.946 15.4619 296.374 15.3756 296.821 15.1812L296.618 16.3069ZM295.925 13.6005C295.925 13.5134 295.925 13.4263 295.925 13.3619C295.925 12.994 295.7 12.7765 295.314 12.7765C294.906 12.7765 294.621 13.0795 294.497 13.6005H295.925V13.6005Z" fill="white"/>
<path d="M310.437 14.3363C310.233 15.8513 309.234 16.5229 307.909 16.5229C306.463 16.5229 305.872 15.5924 305.872 14.423C305.872 12.8201 306.87 11.7146 308.419 11.7146C309.764 11.7146 310.477 12.6244 310.477 13.7724C310.478 14.0556 310.478 14.0767 310.437 14.3363ZM309.092 13.751C309.092 13.2746 308.908 12.8428 308.38 12.8428C307.726 12.8428 307.319 13.6647 307.319 14.4015C307.319 15.0083 307.604 15.4194 308.053 15.4194C308.338 15.4194 308.95 15.0083 309.051 14.3152C309.092 14.1411 309.092 13.947 309.092 13.751Z" fill="white"/>
<defs>
<clipPath id="clip0">
<rect width="40" height="25" fill="white" transform="translate(0.43457 1.02161)"/>
</clipPath>
<clipPath id="clip1">
<rect width="40" height="25" fill="white" transform="translate(46.4346 1.02161)"/>
</clipPath>
</defs>
</svg>
